<svg viewBox="0 0 23.7858 23.7677" xmlns="http://www.w3.org/2000/svg" width="23.785767" height="23.767700" fill="none">
	<g id="Group">
		<path id="Vector" d="M17.0931 2.90402C18.4723 4.28322 19.2471 6.15381 19.2471 8.10429C19.2471 16.2814 22.23 17.8929 23.0357 17.8929L0.75 17.8929C1.57286 17.8929 4.53857 16.2643 4.53857 8.10429C4.53857 6.15381 5.3134 4.28322 6.69259 2.90402C8.07179 1.52482 9.94238 0.75 11.8929 0.75C13.8433 0.75 15.7139 1.52482 17.0931 2.90402Z" fill-rule="nonzero" stroke-linecap="round" stroke-linejoin="round" stroke-width="1.500000" />
		<path id="Vector" d="M9.32141 21.03C9.46959 21.5992 9.80244 22.1031 10.2678 22.4628C10.7331 22.8225 11.3047 23.0177 11.8928 23.0177C12.481 23.0177 13.0525 22.8225 13.5179 22.4628C13.9832 22.1031 14.3161 21.5992 14.4643 21.03" fill-rule="nonzero" stroke-linecap="round" stroke-linejoin="round" stroke-width="1.500000" />
	</g>
</svg>
