<svg viewBox="0 0 16 16" xmlns="http://www.w3.org/2000/svg" width="16.000008" height="15.999985" fill="none">
	<g id="Group">
		<path id="Vector" d="M5.11538 0.5C5.75264 0.5 6.26923 1.01659 6.26923 1.65385L6.26923 5.11538C6.26923 5.75264 5.75264 6.26923 5.11538 6.26923L1.65385 6.26923C1.01659 6.26923 0.5 5.75264 0.5 5.11538L0.5 1.65385C0.5 1.01659 1.01659 0.5 1.65385 0.5L5.11538 0.5Z" stroke-linecap="round" stroke-linejoin="round" stroke-width="1.000000" />
		<path id="Vector" d="M14.3462 0.5C14.9834 0.5 15.5 1.01659 15.5 1.65385L15.5 5.11538C15.5 5.75264 14.9834 6.26923 14.3462 6.26923L10.8846 6.26923C10.2474 6.26923 9.73077 5.75264 9.73077 5.11538L9.73077 1.65385C9.73077 1.01659 10.2474 0.5 10.8846 0.5L14.3462 0.5Z" stroke-linecap="round" stroke-linejoin="round" stroke-width="1.000000" />
		<path id="Vector" d="M5.11538 9.73077C5.75264 9.73077 6.26923 10.2474 6.26923 10.8846L6.26923 14.3462C6.26923 14.9834 5.75264 15.5 5.11538 15.5L1.65385 15.5C1.01659 15.5 0.5 14.9834 0.5 14.3462L0.5 10.8846C0.5 10.2474 1.01659 9.73077 1.65385 9.73077L5.11538 9.73077Z" stroke-linecap="round" stroke-linejoin="round" stroke-width="1.000000" />
		<path id="Vector" d="M14.3462 9.73077C14.9834 9.73077 15.5 10.2474 15.5 10.8846L15.5 14.3462C15.5 14.9834 14.9834 15.5 14.3462 15.5L10.8846 15.5C10.2474 15.5 9.73077 14.9834 9.73077 14.3462L9.73077 10.8846C9.73077 10.2474 10.2474 9.73077 10.8846 9.73077L14.3462 9.73077Z" stroke-linecap="round" stroke-linejoin="round" stroke-width="1.000000" />
	</g>
</svg>
