<svg viewBox="0 0 41 43" xmlns="http://www.w3.org/2000/svg" width="41.000000" height="43.000000" fill="none">
	<defs>
		<linearGradient id="paint_linear_0" x1="-5.28616333" x2="54.2375488" y1="-6.61538696" y2="-3.13511705" gradientUnits="userSpaceOnUse">
			<stop stop-color="rgb(181,23,158)" offset="0" stop-opacity="1" />
			<stop stop-color="rgb(114,9,183)" offset="1" stop-opacity="1" />
		</linearGradient>
	</defs>
	<path id="Vector" d="M24 0C22.3431 0 21 1.34314 21 3L21 40C21 41.6569 22.3431 43 24 43C25.6569 43 27 41.6569 27 40L27 3C27 1.34315 25.6569 0 24 0ZM14 7C14 5.34315 15.3431 4 17 4C18.6569 4 20 5.34315 20 7L20 36C20 37.6569 18.6569 39 17 39C15.3431 39 14 37.6569 14 36L14 7ZM10 8C8.34315 8 7 9.34315 7 11L7 32C7 33.6569 8.34315 35 10 35C11.6569 35 13 33.6569 13 32L13 11C13 9.34315 11.6569 8 10 8ZM3 12C1.34315 12 0 13.3431 0 15L0 28C0 29.6569 1.34315 31 3 31C4.65685 31 6 29.6569 6 28L6 15C6 13.3431 4.65685 12 3 12ZM28 17C28 15.3431 29.3431 14 31 14C32.6569 14 34 15.3431 34 17L34 26C34 27.6569 32.6569 29 31 29C29.3431 29 28 27.6569 28 26L28 17ZM38 18C36.3431 18 35 19.3431 35 21L35 22C35 23.6569 36.3431 25 38 25C39.6569 25 41 23.6569 41 22L41 21C41 19.3431 39.6569 18 38 18Z" fill="url(#paint_linear_0)" fill-rule="evenodd" />
</svg>
