<?xml version="1.0" ?>

<svg width="800px" height="800px" viewBox="0 0 60 60" version="1.1" xmlns="http://www.w3.org/2000/svg">

<title/>

<desc/>

<g fill="none" fill-rule="evenodd" id="Page-1" stroke="none" stroke-width="1">

<g fill="currentColor" id="012---Record">

<path d="M50.16,24.029 C49.6242283,24.1610201 49.2966484,24.702064 49.428,25.238 C49.8090627,26.7966296 50.001111,28.3954646 50,30 C50,30.5522847 50.4477153,31 51,31 C51.5522847,31 52,30.5522847 52,30 C52.0010376,28.2349801 51.7891741,26.4762783 51.369,24.762 C51.2374322,24.2258226 50.6962451,23.8977083 50.16,24.029 Z" id="Path"/>

<path d="M49.875,20.57 C46.2085812,12.9154131 38.4873022,8.03206834 30,8 C29.4477153,8 29,8.44771525 29,9 C29,9.55228475 29.4477153,10 30,10 C37.7164358,10.0292025 44.7361085,14.4699186 48.068,21.43 C48.3054824,21.9289893 48.9025107,22.1409824 49.4015,21.9035 C49.9004893,21.6660176 50.1124824,21.0689893 49.875,20.57 Z" id="Path"/>

<path d="M23.272,53.04 C14.0460542,50.3561172 7.31516808,42.4211504 6.172,32.881 C6.12948539,32.5262353 5.90093555,32.2211004 5.57244298,32.0805368 C5.24395041,31.9399731 4.86542094,31.9853357 4.57944298,32.1995368 C4.29346501,32.4137379 4.14348539,32.7642353 4.186,33.119 C5.42507198,43.454666 12.7169523,52.0513386 22.712,54.96 C23.054975,55.0600344 23.4252646,54.969495 23.6833844,54.7224871 C23.9415042,54.4754793 24.0482396,54.1095293 23.9633844,53.7624871 C23.8785292,53.4154449 23.614975,53.1400344 23.272,53.04 Z" id="Path"/>

<path d="M32.881,53.828 C30.9671594,54.0570035 29.0328406,54.0570035 27.119,53.828 C26.5705813,53.7622781 26.0727219,54.1535813 26.007,54.702 C25.9412781,55.2504187 26.3325813,55.7482781 26.881,55.814 C28.9529387,56.0619997 31.0470613,56.0619997 33.119,55.814 C33.6674187,55.7482781 34.0587219,55.2504188 33.993,54.702 C33.9272781,54.1535813 33.4294188,53.7622781 32.881,53.828 Z" id="Path"/>

<path d="M41.441,6.655 C40.945708,6.41382261 40.3486434,6.61864423 40.105699,7.11307188 C39.8627546,7.60749954 40.065443,8.20529169 40.559,8.45 C48.8050842,12.4571052 54.0285493,20.8319042 54,30 C54,30.5522847 54.4477153,31 55,31 C55.5522847,31 56,30.5522847 56,30 C56.031417,20.0685475 50.3734692,10.9961668 41.441,6.655 Z" id="Path"/>

<path d="M30,6 C31.2864451,6.00040386 32.5708229,6.10306046 33.841,6.307 C33.8939649,6.31493611 33.9474439,6.31894704 34.001,6.319 C34.5215067,6.31759572 34.9538966,5.9171411 34.9951555,5.3982703 C35.0364145,4.87939949 34.6727439,4.41564464 34.159,4.332 C32.783729,4.11067943 31.3929655,3.99965912 30,4 C29.4477153,4 29,4.44771525 29,5 C29,5.55228475 29.4477153,6 30,6 Z" id="Path"/>

<path d="M30,0 C13.4314575,-1.01453063e-15 2.02906125e-15,13.4314575 0,30 C-2.02906125e-15,46.5685425 13.4314575,60 30,60 C46.5685425,60 60,46.5685425 60,30 C59.981263,13.4392249 46.5607751,0.0187370435 30,0 Z M30,58 C14.536027,58 2,45.463973 2,30 C2,14.536027 14.536027,2 30,2 C45.463973,2 58,14.536027 58,30 C57.9823655,45.4566626 45.4566626,57.9823655 30,58 Z" fill-rule="nonzero" id="Shape"/>

<path d="M30,19 C23.9248678,19 19,23.9248678 19,30 C19,36.0751322 23.9248678,41 30,41 C36.0751322,41 41,36.0751322 41,30 C40.9928365,23.9278374 36.0721626,19.0071635 30,19 Z M30,39 C25.0294373,39 21,34.9705627 21,30 C21,25.0294373 25.0294373,21 30,21 C34.9705627,21 39,25.0294373 39,30 C38.9944889,34.9682782 34.9682782,38.9944889 30,39 Z" fill-rule="nonzero" id="Shape"/>

<path d="M30,26 C27.790861,26 26,27.790861 26,30 C26,32.209139 27.790861,34 30,34 C32.209139,34 34,32.209139 34,30 C34,27.790861 32.209139,26 30,26 Z M30,32 C28.8954305,32 28,31.1045695 28,30 C28,28.8954305 28.8954305,28 30,28 C31.1045695,28 32,28.8954305 32,30 C32,31.1045695 31.1045695,32 30,32 Z" fill-rule="nonzero" id="Shape"/>

</g>

</g>

</svg>