<svg viewBox="0 0 16.0007 17.3373" xmlns="http://www.w3.org/2000/svg" width="16.000652" height="17.337311" fill="none">
	<path id="Vector" d="M6.31633 1.3043C6.40746 1.06812 6.5678 0.864964 6.77634 0.721449C6.98489 0.577934 7.23192 0.500748 7.48507 0.5L8.51558 0.5C8.76873 0.500748 9.01576 0.577934 9.2243 0.721449C9.43285 0.864964 9.59319 1.06812 9.68432 1.3043L10.2247 2.69925L12.0595 3.75489L13.5424 3.52868C13.7894 3.49517 14.0407 3.53582 14.2644 3.64546C14.4882 3.75511 14.6743 3.9288 14.7992 4.14448L15.3018 5.02418C15.4307 5.24328 15.49 5.4963 15.4721 5.74983C15.4541 6.00336 15.3597 6.24549 15.2013 6.44426L14.2839 7.61301L14.2839 9.72429L15.2264 10.893C15.3848 11.0918 15.4792 11.3339 15.4972 11.5875C15.5151 11.841 15.4558 12.094 15.327 12.3131L14.8243 13.1928C14.6995 13.4085 14.5133 13.5822 14.2896 13.6918C14.0658 13.8015 13.8145 13.8421 13.5676 13.8086L12.0846 13.5824L10.2498 14.6381L9.70946 16.033C9.61832 16.2692 9.45798 16.4723 9.24944 16.6159C9.04089 16.7594 8.79387 16.8366 8.54071 16.8373L7.48507 16.8373C7.23192 16.8366 6.98489 16.7594 6.77634 16.6159C6.5678 16.4723 6.40746 16.2692 6.31633 16.033L5.77594 14.6381L3.94113 13.5824L2.45821 13.8086C2.21128 13.8421 1.95997 13.8015 1.7362 13.6918C1.51243 13.5822 1.32631 13.4085 1.20149 13.1928L0.698807 12.3131C0.569995 12.094 0.510648 11.841 0.528597 11.5875C0.546546 11.3339 0.640948 11.0918 0.799344 10.893L1.71675 9.72429L1.71675 7.61301L0.77421 6.44426C0.615814 6.24549 0.521412 6.00336 0.503463 5.74983C0.485514 5.4963 0.544861 5.24328 0.673672 5.02418L1.17636 4.14448C1.30118 3.9288 1.4873 3.75511 1.71107 3.64546C1.93484 3.53582 2.18615 3.49517 2.43307 3.52868L3.916 3.75489L5.77594 2.69925L6.31633 1.3043ZM5.91048 10.065C6.18666 10.4784 6.57921 10.8005 7.03848 10.9908C7.49775 11.181 8.00311 11.2308 8.49067 11.1338C8.97823 11.0368 9.42608 10.7974 9.77759 10.4459C10.1291 10.0944 10.3685 9.64656 10.4655 9.159C10.5624 8.67144 10.5127 8.16607 10.3224 7.7068C10.1322 7.24753 9.81004 6.85499 9.39671 6.57881C8.98338 6.30263 8.49743 6.15522 8.00032 6.15522C7.33372 6.15522 6.69442 6.42003 6.22306 6.89139C5.7517 7.36275 5.48689 8.00205 5.48689 8.66865C5.48689 9.16576 5.6343 9.65171 5.91048 10.065Z" fill-rule="nonzero" stroke-linecap="round" stroke-linejoin="round" stroke-width="1.000000" />
</svg>
